<?xml version="1.0" encoding="UTF-8" standalone="no"?>
<svg width="460px" height="306px" viewBox="0 0 460 306" version="1.1" xmlns="http://www.w3.org/2000/svg" xmlns:xlink="http://www.w3.org/1999/xlink" style="background: #FFFFFF;">
    <!-- Generator: Sketch 49.1 (51147) - http://www.bohemiancoding.com/sketch -->
    <title>Artboard</title>
    <desc>Created with Sketch.</desc>
    <defs></defs>
    <g id="Artboard" stroke="none" stroke-width="1" fill="none" fill-rule="evenodd">
        <g id="Group-4" transform="translate(106.000000, 27.000000)">
            <g id="Group-3-Copy">
                <rect id="Rectangle-4-Copy-44" stroke="#0B0C0C" stroke-width="2" x="6" y="66" width="138" height="180"></rect>
                <rect id="Rectangle-4-Copy-43" fill="#0B0C0C" x="5" y="105" width="140" height="2"></rect>
                <rect id="Rectangle-4-Copy-42" fill="#0B0C0C" x="5" y="125" width="140" height="2"></rect>
                <rect id="Rectangle-4-Copy-41" fill="#0B0C0C" x="5" y="145" width="140" height="2"></rect>
                <rect id="Rectangle-4-Copy-40" fill="#0B0C0C" x="5" y="165" width="140" height="2"></rect>
                <rect id="Rectangle-4-Copy-39" fill="#0B0C0C" x="5" y="185" width="140" height="2"></rect>
                <rect id="Rectangle-4-Copy-38" fill="#0B0C0C" x="5" y="205" width="140" height="2"></rect>
                <rect id="Rectangle-4-Copy-37" fill="#0B0C0C" x="5" y="225" width="140" height="2"></rect>
                <rect id="Rectangle-4-Copy-36" fill="#0B0C0C" x="45" y="105" width="2" height="142"></rect>
                <rect id="Rectangle-4-Copy-35" stroke="#0B0C0C" stroke-width="2" x="104" y="6" width="138" height="180"></rect>
                <rect id="Rectangle-4-Copy-34" fill="#0B0C0C" x="103" y="45" width="140" height="2"></rect>
                <rect id="Rectangle-4-Copy-33" fill="#0B0C0C" x="103" y="65" width="140" height="2"></rect>
                <rect id="Rectangle-4-Copy-32" fill="#0B0C0C" x="103" y="85" width="140" height="2"></rect>
                <rect id="Rectangle-4-Copy-31" fill="#0B0C0C" x="103" y="105" width="140" height="2"></rect>
                <rect id="Rectangle-4-Copy-30" fill="#0B0C0C" x="103" y="125" width="140" height="2"></rect>
                <rect id="Rectangle-4-Copy-29" fill="#0B0C0C" x="103" y="145" width="140" height="2"></rect>
                <rect id="Rectangle-4-Copy-28" fill="#0B0C0C" x="103" y="165" width="140" height="2"></rect>
                <rect id="Rectangle-4-Copy-27" fill="#0B0C0C" x="143" y="45" width="2" height="142"></rect>
                <rect id="Rectangle-6-Copy-23" fill="#DEE0E2" x="98" y="0" width="5" height="65"></rect>
                <rect id="Rectangle-6-Copy-22" fill="#DEE0E2" x="243" y="0" width="5" height="192"></rect>
                <rect id="Rectangle-6-Copy-21" fill="#DEE0E2" x="145" y="187" width="5" height="60"></rect>
                <rect id="Rectangle-6-Copy-20" fill="#DEE0E2" x="150" y="187" width="93" height="5"></rect>
                <rect id="Rectangle-6-Copy-19" fill="#DEE0E2" x="0" y="60" width="5" height="192"></rect>
                <rect id="Rectangle-6-Copy-18" fill="#DEE0E2" x="5" y="60" width="93" height="5"></rect>
                <rect id="Rectangle-6-Copy-17" fill="#DEE0E2" x="5" y="247" width="145" height="5"></rect>
                <rect id="Rectangle-6-Copy-16" fill="#DEE0E2" x="103" y="0" width="140" height="5"></rect>
                <rect id="Rectangle-7-Copy-7" fill-opacity="0.85399683" fill="#005EA5" x="105" y="107" width="38" height="18"></rect>
                <rect id="Rectangle-7-Copy-6" fill-opacity="0.85399683" fill="#005EA5" x="105" y="127" width="38" height="18"></rect>
                <rect id="Rectangle-7-Copy-5" fill-opacity="0.85399683" fill="#005EA5" x="105" y="147" width="38" height="18"></rect>
                <rect id="Rectangle-7-Copy-4" fill-opacity="0.85399683" fill="#005EA5" x="105" y="167" width="38" height="18"></rect>
            </g>
            <text id="Register-B" font-family="GDSTransportWebsite-Bold, GDS Transport Website" font-size="16" font-weight="bold" fill="#0B0C0C">
                <tspan x="115" y="22">Register B</tspan>
            </text>
            <text id="Register-A" font-family="GDSTransportWebsite-Bold, GDS Transport Website" font-size="16" font-weight="bold" fill="#0B0C0C">
                <tspan x="17" y="82">Register A</tspan>
            </text>
        </g>
    </g>
</svg>