<?xml version="1.0" encoding="UTF-8" standalone="no"?>
<svg width="960px" height="640px" viewBox="0 0 960 640" version="1.1" xmlns="http://www.w3.org/2000/svg" xmlns:xlink="http://www.w3.org/1999/xlink">
    <!-- Generator: Sketch 49.1 (51147) - http://www.bohemiancoding.com/sketch -->
    <title>Artboard</title>
    <desc>Created with Sketch.</desc>
    <defs></defs>
    <g id="Artboard" stroke="none" stroke-width="1" fill="none" fill-rule="evenodd">
        <g id="Group">
            <path d="M10,0 L950,0 C955.522847,-1.01453063e-15 960,4.4771525 960,10 L960,640 L0,640 L0,10 C-6.76353751e-16,4.4771525 4.4771525,1.01453063e-15 10,0 Z" id="Rectangle-Copy-5" fill="#DADADA"></path>
            <circle id="Oval-2-Copy-8" fill="#FFFFFF" cx="25" cy="21" r="9"></circle>
            <circle id="Oval-2-Copy-7" fill="#FFFFFF" cx="49" cy="21" r="9"></circle>
            <circle id="Oval-2-Copy-6" fill="#FFFFFF" cx="73" cy="21" r="9"></circle>
            <rect id="Rectangle-2-Copy-5" fill="#0B0C0C" x="4" y="42" width="952" height="594"></rect>
            <rect id="Rectangle-2-Copy-4" fill="#0B0C0C" x="4" y="42" width="952" height="594"></rect>
            <rect id="Rectangle-Copy-4" fill="#1E1E1E" x="4" y="42" width="146" height="594"></rect>
            <text id="if-(input-==-'countr" font-family="RobotoMono-Light, Roboto Mono" font-size="44" font-weight="300" line-spacing="76">
                <tspan x="180" y="110" fill="#FFEE7D">if</tspan>
                <tspan x="232.830078" y="110" fill="#FFFFFF"> </tspan>
                <tspan x="259.234375" y="110" fill="#FFEE7D">(</tspan>
                <tspan x="285.638672" y="110" fill="#FFFFFF">input == 'countries'</tspan>
                <tspan x="813.724609" y="110" fill="#FFEE7D">)</tspan>
                <tspan x="840.128906" y="110" fill="#FFFFFF"> </tspan>
                <tspan x="866.533203" y="110" fill="#FFEE7D">{</tspan>
                <tspan x="892.9375" y="110" fill="#FFFFFF"></tspan>
                <tspan x="180" y="186" fill="#FFFFFF"></tspan>
                <tspan x="180" y="262" fill="#FFFFFF">		dropdown_values = </tspan>
                <tspan x="180" y="338" fill="#FFFFFF">		</tspan>
                <tspan x="236" y="338" fill="#7CFFEE">register.get_records</tspan>
                <tspan x="764.085938" y="338" fill="#FFFFFF"> </tspan>
                <tspan x="180" y="414" fill="#FFFFFF">   </tspan>
                <tspan x="180" y="490" fill="#FFEE7D">}</tspan>
            </text>
            <text id="24-25-26-27-28-29-30-copy-2" font-family="RobotoMono-Light, Roboto Mono" font-size="44" font-weight="300" line-spacing="76" fill="#6F777B">
                <tspan x="50.5957031" y="110">24</tspan>
                <tspan x="50.5957031" y="186">25</tspan>
                <tspan x="50.5957031" y="262">26</tspan>
                <tspan x="50.5957031" y="338">27</tspan>
                <tspan x="50.5957031" y="414">28</tspan>
                <tspan x="50.5957031" y="490">29</tspan>
                <tspan x="50.5957031" y="566">30</tspan>
                <tspan x="50.5957031" y="642">31</tspan>
                <tspan x="50.5957031" y="718">32</tspan>
                <tspan x="50.5957031" y="794">33</tspan>
                <tspan x="50.5957031" y="870">34</tspan>
            </text>
        </g>
    </g>
</svg>