<?xml version="1.0" encoding="UTF-8" standalone="no"?>
<svg width="9px" height="15px" viewBox="0 0 9 15" version="1.1" xmlns="http://www.w3.org/2000/svg" xmlns:xlink="http://www.w3.org/1999/xlink">
    <!-- Generator: Sketch 50.2 (55047) - http://www.bohemiancoding.com/sketch -->
    <title>Artboard</title>
    <desc>Created with Sketch.</desc>
    <defs></defs>
    <g id="Artboard" stroke="none" stroke-width="1" fill="none" fill-rule="evenodd">
        <path d="M1.5,3 C0.671572875,3 0,2.32842712 0,1.5 C0,0.671572875 0.671572875,0 1.5,0 C2.32842712,0 3,0.671572875 3,1.5 C3,2.32842712 2.32842712,3 1.5,3 Z M7.5,3 C6.67157288,3 6,2.32842712 6,1.5 C6,0.671572875 6.67157288,0 7.5,0 C8.32842712,0 9,0.671572875 9,1.5 C9,2.32842712 8.32842712,3 7.5,3 Z M1.5,9 C0.671572875,9 0,8.32842712 0,7.5 C0,6.67157288 0.671572875,6 1.5,6 C2.32842712,6 3,6.67157288 3,7.5 C3,8.32842712 2.32842712,9 1.5,9 Z M7.5,9 C6.67157288,9 6,8.32842712 6,7.5 C6,6.67157288 6.67157288,6 7.5,6 C8.32842712,6 9,6.67157288 9,7.5 C9,8.32842712 8.32842712,9 7.5,9 Z M1.5,15 C0.671572875,15 0,14.3284271 0,13.5 C0,12.6715729 0.671572875,12 1.5,12 C2.32842712,12 3,12.6715729 3,13.5 C3,14.3284271 2.32842712,15 1.5,15 Z M7.5,15 C6.67157288,15 6,14.3284271 6,13.5 C6,12.6715729 6.67157288,12 7.5,12 C8.32842712,12 9,12.6715729 9,13.5 C9,14.3284271 8.32842712,15 7.5,15 Z" id="Combined-Shape" fill="#005ea5"></path>
    </g>
</svg>